<?xml version="1.0" encoding="UTF-8"?>
<svg version="1.1" width="978px" height="1194px" viewBox="0 0 978.0 1194.0" xmlns="http://www.w3.org/2000/svg"><defs><clipPath id="i0"><path d="M978,0 L978,1194 L0,1194 L0,0 L978,0 Z"></path></clipPath></defs><g clip-path="url(#i0)"><g transform="translate(40.29970949171256 0.057559731652894186) rotate(29.999999999999996)"><path d="M33.9478085,80.4142278 L33.9478085,69.1045856 C15.1670335,68.7839973 0,53.4135702 0,34.5522928 C0,15.4951004 15.4874637,0 34.535264,0 C53.5830642,0 69.070528,15.4951004 69.070528,34.5522928 C69.070528,64.2779509 35.1227195,79.879914 34.7666859,80.0402082 L33.9478085,80.4142278 Z" stroke="#E26600" stroke-width="2.42682927" fill="none" stroke-miterlimit="10"></path></g><g transform="translate(529.0631241258586 0.057559731652894186) rotate(29.999999999999996)"><path d="M33.9478085,80.4142278 L33.9478085,69.1045856 C15.1670335,68.7839973 0,53.4135702 0,34.5522928 C0,15.4951004 15.4874637,0 34.535264,0 C53.5830642,0 69.070528,15.4951004 69.070528,34.5522928 C69.070528,64.2779509 35.1227195,79.879914 34.7666859,80.0402082 L33.9478085,80.4142278 Z" stroke="#E26600" stroke-width="2.42682927" fill="none" stroke-miterlimit="10"></path></g><g transform="translate(40.299709491712505 298.57839671650413) rotate(29.999999999999996)"><path d="M33.9478085,80.4142278 L33.9478085,69.1045856 C15.1670335,68.7839973 0,53.4135702 0,34.5522928 C0,15.4951004 15.4874637,0 34.535264,0 C53.5830642,0 69.070528,15.4951004 69.070528,34.5522928 C69.070528,64.2779509 35.1227195,79.879914 34.7666859,80.0402082 L33.9478085,80.4142278 Z" stroke="#E26600" stroke-width="2.42682927" fill="none" stroke-miterlimit="10"></path></g><g transform="translate(529.0631241258586 298.57839671650413) rotate(29.999999999999996)"><path d="M33.9478085,80.4142278 L33.9478085,69.1045856 C15.1670335,68.7839973 0,53.4135702 0,34.5522928 C0,15.4951004 15.4874637,0 34.535264,0 C53.5830642,0 69.070528,15.4951004 69.070528,34.5522928 C69.070528,64.2779509 35.1227195,79.879914 34.7666859,80.0402082 L33.9478085,80.4142278 Z" stroke="#E26600" stroke-width="2.42682927" fill="none" stroke-miterlimit="10"></path></g><g transform="translate(40.29970949171262 597.0575597316528) rotate(29.999999999999996)"><path d="M33.9478085,80.4142278 L33.9478085,69.1045856 C15.1670335,68.7839973 0,53.4135702 0,34.5522928 C0,15.4951004 15.4874637,0 34.535264,0 C53.5830642,0 69.070528,15.4951004 69.070528,34.5522928 C69.070528,64.2779509 35.1227195,79.879914 34.7666859,80.0402082 L33.9478085,80.4142278 Z" stroke="#E26600" stroke-width="2.42682927" fill="none" stroke-miterlimit="10"></path></g><g transform="translate(529.0631241258586 597.0575597316528) rotate(29.999999999999996)"><path d="M33.9478085,80.4142278 L33.9478085,69.1045856 C15.1670335,68.7839973 0,53.4135702 0,34.5522928 C0,15.4951004 15.4874637,0 34.535264,0 C53.5830642,0 69.070528,15.4951004 69.070528,34.5522928 C69.070528,64.2779509 35.1227195,79.879914 34.7666859,80.0402082 L33.9478085,80.4142278 Z" stroke="#E26600" stroke-width="2.42682927" fill="none" stroke-miterlimit="10"></path></g><g transform="translate(40.29970949171239 895.5783967165041) rotate(29.999999999999996)"><path d="M33.9478085,80.4142278 L33.9478085,69.1045856 C15.1670335,68.7839973 0,53.4135702 0,34.5522928 C0,15.4951004 15.4874637,0 34.535264,0 C53.5830642,0 69.070528,15.4951004 69.070528,34.5522928 C69.070528,64.2779509 35.1227195,79.879914 34.7666859,80.0402082 L33.9478085,80.4142278 Z" stroke="#E26600" stroke-width="2.42682927" fill="none" stroke-miterlimit="10"></path></g><g transform="translate(529.0631241258583 895.5783967165041) rotate(29.999999999999996)"><path d="M33.9478085,80.4142278 L33.9478085,69.1045856 C15.1670335,68.7839973 0,53.4135702 0,34.5522928 C0,15.4951004 15.4874637,0 34.535264,0 C53.5830642,0 69.070528,15.4951004 69.070528,34.5522928 C69.070528,64.2779509 35.1227195,79.879914 34.7666859,80.0402082 L33.9478085,80.4142278 Z" stroke="#E26600" stroke-width="2.42682927" fill="none" stroke-miterlimit="10"></path></g></g></svg>