<?xml version="1.0" encoding="UTF-8"?><svg version="1.1" width="569px" height="649px" viewBox="0 0 569.0 649.0" xmlns="http://www.w3.org/2000/svg" xmlns:xlink="http://www.w3.org/1999/xlink"><defs><clipPath id="i0"><path d="M271.5,0 C421.244845,0 543,121.780731 543,271.557032 C543,505.180066 276.118299,627.800664 273.31933,629.060465 L266.881701,632 L266.881701,543.114064 C119.236082,540.594463 0,419.793577 0,271.557032 C0,121.780731 121.755155,0 271.5,0 Z"></path></clipPath></defs><g transform="translate(1.0 1.0)"><g transform="translate(12.0 0.0)"><g clip-path="url(#i0)"><polygon points="0,0 543,0 543,632 0,632 0,0" stroke="none" fill="#E26600"></polygon></g></g><path d="M278.677577,646 L278.677577,555.145072 C124.506186,552.569657 0,429.092802 0,277.572536 C0,124.478405 127.136598,0 283.5,0 C439.863402,0 567,124.478405 567,277.572536 C567,516.370764 288.322423,641.707641 285.399742,642.995349 L278.677577,646 Z" stroke="#E26600" stroke-width="2" fill="none" stroke-miterlimit="10"></path><g transform="translate(30.0 171.0)"><text transform="translate(19.95000111255564 58.0)"><tspan x="19.9500011px" y="0px" font-family="MontserratAlternates-SemiBold, Montserrat Alternates" font-size="60.0" font-weight="500" fill="#EAEAEA" text-anchor="center" line-spacing="98.0" letter-spacing="6.399999752765412">MAKE YOUR </tspan><tspan x="85.2100009px" y="98px" font-family="MontserratAlternates-SemiBold, Montserrat Alternates" font-size="60.0" font-weight="500" fill="#EAEAEA" text-anchor="center" line-spacing="98.0" letter-spacing="6.399999752765412">PASSION</tspan></text></g></g></svg>