<?xml version="1.0" encoding="UTF-8"?><svg version="1.1" width="2569px" height="2450px" viewBox="0 0 2569.0 2450.0" xmlns="http://www.w3.org/2000/svg" xmlns:xlink="http://www.w3.org/1999/xlink"><defs><clipPath id="i0"><path d="M372.055556,0 C577.261455,0 744.111111,166.835831 744.111111,372.024727 C744.111111,692.081051 378.384336,860.067474 374.548711,861.793362 L365.726775,865.820433 L365.726775,744.049453 C163.397595,740.597678 0,575.104204 0,372.024727 C0,166.835831 166.849656,0 372.055556,0 Z"></path></clipPath><clipPath id="i1"><path d="M386.500896,0 C600.06716,0 773.00188,173.212357 773.00188,386.674059 L773.00188,1676.25507 C773.201948,2099.97455 430.134866,2443.19534 6.80529801,2443.19534 L0,2443.19534 L0,386.674059 C0,175.148731 169.689405,3.46430721 380.112115,0.0517712711 L386.500896,0 Z"></path></clipPath><clipPath id="i2"><path d="M386.500896,0 C600.06716,0 773.001792,173.212357 773.001792,386.674059 L773.001792,2442.99509 L766.39665,2442.99509 C343.067082,2442.99509 0,2099.7743 0,1676.25507 L0,386.674059 C0,175.148731 169.689405,3.46430721 380.112115,0.0517712711 L386.500896,0 Z"></path></clipPath><clipPath id="i3"><path d="M386.500896,0 C600.06716,0 773.001792,173.212357 773.001792,386.674059 L773.201948,1595.35589 L761.793066,1583.9419 C650.506428,1473.40638 527.610752,1419.74059 386.701052,1419.74059 L381.897312,1419.74059 C291.627035,1420.94206 202.157382,1382.29468 130.701753,1311.40777 C48.838021,1230.30835 0,1115.96817 0,1005.43265 L0,386.674059 C0,175.148731 169.689405,3.46430721 380.112115,0.0517712711 L386.500896,0 Z"></path></clipPath></defs><g transform=""><g transform="translate(1790.000000000001 1562.0)"><g transform="translate(16.444444444444457 0.0)"><g clip-path="url(#i0)"><polygon points="0,0 744.111111,0 744.111111,865.820433 0,865.820433 0,0" stroke="none" fill="#E26600"></polygon></g></g><path d="M381.891495,885 L381.891495,760.531561 C170.619588,757.003322 0,587.843854 0,380.265781 C0,170.531561 174.224227,0 388.5,0 C602.775773,0 777,170.531561 777,380.265781 C777,707.41196 395.108505,879.119601 391.103351,880.883721 L381.891495,885 Z" stroke="#E26600" stroke-width="2.74074074" fill="none" stroke-miterlimit="10"></path><g transform="translate(41.111111111111086 234.22537553032907)"><text transform="translate(27.33889124128558 80.0)"><tspan x="27.3388912px" y="0px" font-family="MontserratAlternates-SemiBold, Montserrat Alternates" font-size="82.22222222222223" font-weight="500" fill="#EAEAEA" text-anchor="center" line-spacing="134.2962962962963" letter-spacing="8.77036984761556">MAKE YOUR </tspan><tspan x="116.769261px" y="134.296296px" font-family="MontserratAlternates-SemiBold, Montserrat Alternates" font-size="82.22222222222223" font-weight="500" fill="#EAEAEA" text-anchor="center" line-spacing="134.2962962962963" letter-spacing="8.77036984761556">PASSION</tspan></text></g></g><g clip-path="url(#i1)"><polygon points="0,0 773.001967,0 773.001967,2443.19534 0,2443.19534 0,0" stroke="none" fill="#202020"></polygon></g><g clip-path="url(#i1)"><polygon points="0,0 773.001967,0 773.001967,2443.19534 0,2443.19534 0,0" stroke="none" fill="#202020"></polygon></g><g transform="translate(897.098402804827 0.2002454991779814)"><g clip-path="url(#i2)"><polygon points="0,0 773.201948,0 773.201948,2442.99509 0,2442.99509 0,0" stroke="none" fill="#202020"></polygon></g></g><g transform="translate(1793.996649785742 0.2002454991779814)"><g clip-path="url(#i3)"><polygon points="0,0 773.201948,0 773.201948,1595.35589 0,1595.35589 0,0" stroke="none" fill="#202020"></polygon></g></g></g></svg>