<?xml version="1.0" encoding="UTF-8"?>
<svg version="1.1" width="862px" height="220px" viewBox="0 0 862.0 220.0" xmlns="http://www.w3.org/2000/svg"><defs><clipPath id="i0"><path d="M109.475913,0 C169.920593,0 218.951826,49.0547289 218.951826,109.528373 L218.951826,451.862799 L215.690842,448.658512 C184.129169,417.373014 149.422975,402.108953 109.475913,402.108953 L108.13658,402.108953 C82.5727898,402.458512 57.2419269,391.505675 36.9772366,371.406053 C13.8009529,348.451702 0,316.059269 0,284.77377 L0,109.528373 C0,49.6594653 48.0555119,0.982236469 107.666034,0.0146787828 L109.475913,0 Z"></path></clipPath><clipPath id="i1"><path d="M553,0 L553,219 L0,219 L0,0 L553,0 Z"></path></clipPath></defs><g transform="translate(0.6372005044131583 0.5)"><g transform="translate(451.86279949558696 0.024086818415838707) rotate(90.0)"><g clip-path="url(#i0)"><polygon points="0,0 218.951826,0 218.951826,451.862799 0,451.862799 0,0" stroke="none" fill="#202020"></polygon></g></g><g transform="translate(308.36279949558684 0.0)"><g clip-path="url(#i1)"><polygon points="0,0 553,0 553,219 0,219 0,0" stroke="none" fill="#202020"></polygon></g></g></g></svg>