<?xml version="1.0" encoding="UTF-8"?><svg version="1.1" width="1422px" height="220px" viewBox="0 0 1422.0 220.0" xmlns="http://www.w3.org/2000/svg" xmlns:xlink="http://www.w3.org/1999/xlink"><defs><clipPath id="i0"><path d="M110,0 C170.619375,0 220,49.3460277 220,110.052711 C220,202.774305 116.145628,252.412331 111.004921,254.799432 L110.815246,254.886507 L108.078348,256.051702 L108.078348,220.047163 C48.2742192,219.056747 0,170.060277 0,110.052711 C0,49.4042875 49.3223928,0 110,0 Z"></path></clipPath><clipPath id="i1"><path d="M109.475913,0 C169.920593,0 218.951826,49.0547289 218.951826,109.528373 L218.951826,451.862799 L215.690842,448.658512 C184.129169,417.373014 149.422975,402.108953 109.475913,402.108953 L108.13658,402.108953 C82.5727898,402.458512 57.2419269,391.505675 36.9772366,371.406053 C13.8009529,348.451702 0,316.059269 0,284.77377 L0,109.528373 C0,49.6594653 48.0555119,0.982236469 107.666034,0.0146787828 L109.475913,0 Z"></path></clipPath><clipPath id="i2"><path d="M553,0 L553,219 L0,219 L0,0 L553,0 Z"></path></clipPath><clipPath id="i3"><path d="M466,0 L466,220 L0,220 L0,0.524086818 L466,0 Z"></path></clipPath></defs><g transform="translate(1012.5 -1.4210854715202004e-14) rotate(90.0)"><g transform="translate(-1.8189894035458565e-12 436.9482976040342)"><g clip-path="url(#i0)"><polygon points="0,0 220,0 220,256.051702 0,256.051702 0,0" stroke="none" fill="#E26600"></polygon></g></g><g transform="translate(0.524086818419164 0.0)"><g clip-path="url(#i1)"><polygon points="0,0 218.951826,0 218.951826,451.862799 0,451.862799 0,0" stroke="none" fill="#202020"></polygon></g></g></g><g transform="translate(869.0 0.5)"><g clip-path="url(#i2)"><polygon points="0,0 553,0 553,219 0,219 0,0" stroke="none" fill="#202020"></polygon></g></g><g clip-path="url(#i3)"><polygon points="0,0 466,0 466,220 0,220 0,0" stroke="none" fill="#E26600"></polygon></g></svg>