<?xml version="1.0" encoding="utf-8"?>
<!-- Generator: Adobe Illustrator 24.0.2, SVG Export Plug-In . SVG Version: 6.00 Build 0)  -->
<svg version="1.1" id="Layer_1" xmlns="http://www.w3.org/2000/svg" x="0px" y="0px"
     viewBox="0 0 2048 2048" style="enable-background:new 0 0 2048 2048;" xml:space="preserve">
<style type="text/css">
	.st0{fill:#202020;}
	.st1{fill:#E26600;}
</style>
<g>
	<path class="st0" d="M641.8,1647.7v219.2H593v-177.6c-12,51.9-29,111.1-50.9,177.6h-41.2c-25.9-79.2-42.7-137.7-50.5-175.5v175.5
		h-47.8v-219.2h68.6c19.6,55.6,36.2,109.9,49.9,162.7c13.8-50.3,30.2-104.6,49.2-162.7H641.8z"/>
	<path class="st0" d="M750.1,1647.7h40.2l81,219.2h-49.5c-3.9-11.3-8.5-26.2-13.8-44.7h-75.8c-5.3,16.4-10.2,31.3-14.5,44.7h-48.5
		L750.1,1647.7z M770.6,1712.1c-5.1,14.1-13.2,37.4-24.2,69.9h47.8C784.2,1753.1,776.3,1729.8,770.6,1712.1z"/>
	<path class="st0" d="M944.4,1647.7v89.3v-0.3c20.1-27.5,41.4-57.1,64-89h59.9c-28.4,38.1-54.2,72.5-77.6,103.2
		c30.5,36.5,62.4,75.1,95.9,116h-64.7c-21.9-29.3-47.4-63.1-76.5-101.4h-1v101.4h-46.1v-219.2H944.4z"/>
	<path class="st0" d="M1114.7,1647.7h145.8v38.8h-96.9v48.1h80.7v38.8h-80.7v54.7H1265v38.8h-150.3V1647.7z"/>
	<path class="st0" d="M1305.8,1866.8V1648c2.5-0.7,11.6-1.6,27.2-2.8c15.6-1.1,27.5-1.7,35.8-1.7c56.5,0,84.8,23,84.8,68.9
		c0,24.9-9.6,45.9-28.7,63l42.6,91.4h-49.2l-36-78.2c-3,0.7-6.1,1-9.3,1c-0.9,0-1.7,0-2.4,0c-7.4-0.5-12.7-1.3-15.9-2.4v79.6H1305.8
		z M1354.6,1747.4c6.2,1.9,12.7,2.8,19.4,2.8c0.9,0,1.6,0,2.1,0c17.5-0.2,26.3-12.8,26.3-37.7c0-19.9-9.1-29.8-27.3-29.8
		c-12.2,0-19,0.8-20.4,2.4V1747.4z"/>
	<path class="st0" d="M1488.3,1844l21.8-30.1c12.7,8.8,29.7,13.2,50.9,13.2c22.6,0,33.9-8.7,33.9-26c0-10.4-13-20.3-39.1-29.8
		c-39.7-14.3-59.6-36.8-59.6-67.5c0-18.7,6.9-33.6,20.8-44.7c12.9-10.4,30.3-15.6,52.3-15.6c24.7,0,48,7.6,69.9,22.9
		c-4.1,6.2-11.1,16.3-20.8,30.1c-19.4-8.1-36-12.1-49.9-12.1c-17.5,0-26.3,6.6-26.3,19.7c0,5.5,2.4,10.2,7.1,14
		c4.7,3.8,14,8.5,27.9,14c24,9.2,41.4,19.5,52.1,30.8c10.7,11.3,16.1,24.7,16.1,40.2c0,23.1-8.5,40.7-25.6,53
		c-13.8,9.9-31.3,14.9-52.3,14.9C1543.1,1871,1516.7,1862,1488.3,1844z"/>
</g>
<g>
	<g>
		<path class="st0" d="M402.6,1600.7h-3.3V601c0-103.8,84.2-188,188-188h0c103.8,0,188,84.2,188,188v626.9
			C775.3,1433.8,608.4,1600.7,402.6,1600.7z"/>
	</g>
	<g>
		<path class="st0" d="M1211.6,1600.7h-3.3c-205.9,0-372.7-166.9-372.7-372.7V601c0-103.8,84.2-188,188-188h0
			c103.8,0,188,84.2,188,188V1600.7z"/>
	</g>
	<g>
		<path class="st1" d="M1456.5,1602.5v-61.8c-102.7-1.7-185.6-85.8-185.6-188.8c0-104.1,84.7-188.9,188.9-188.9
			c104.1,0,188.9,84.7,188.9,188.9c0,162.4-185.7,247.8-187.5,248.6L1456.5,1602.5z"/>
	</g>
	<g>
		<path class="st0" d="M1647.8,1188.6l-5.6-5.5c-54.2-53.7-113.8-79.9-182.4-79.9l-2.3,0c-43.9,0.6-87.4-18.2-122.2-52.7
			c-39.8-39.4-63.5-95-63.5-148.7V601c0-103.8,84.2-188,188-188h0c103.8,0,188,84.2,188,188L1647.8,1188.6z"/>
	</g>
</g>
</svg>
