<?xml version="1.0" encoding="utf-8"?>
<!-- Generator: Adobe Illustrator 24.0.2, SVG Export Plug-In . SVG Version: 6.00 Build 0)  -->
<svg version="1.1" id="Layer_1" xmlns="http://www.w3.org/2000/svg" x="0px" y="0px"
     viewBox="0 0 2048 2048" style="enable-background:new 0 0 2048 2048;" xml:space="preserve">
<style type="text/css">
	.st0{fill:#202020;}
	.st1{fill:#E26600;}
</style>
<g>
	<g>
		<path class="st0" d="M385.6,1633.1h-3.4v-1027c0-106.7,86.5-193.1,193.1-193.1h0c106.7,0,193.1,86.5,193.1,193.1v644
			C768.5,1461.7,597.1,1633.1,385.6,1633.1z"/>
	</g>
	<g>
		<path class="st0" d="M1216.7,1633.1h-3.4c-211.5,0-382.9-171.4-382.9-382.9v-644c0-106.7,86.5-193.1,193.1-193.1h0
			c106.7,0,193.1,86.5,193.1,193.1V1633.1z"/>
	</g>
	<g>
		<path class="st1" d="M1468.4,1635v-63.5c-105.5-1.8-190.7-88.1-190.7-194c0-107,87-194,194-194c107,0,194,87,194,194
			c0,166.9-190.7,254.5-192.7,255.4L1468.4,1635z"/>
	</g>
	<g>
		<path class="st0" d="M1664.8,1209.8l-5.7-5.7c-55.6-55.2-117-82-187.4-82l-2.4,0c-45.1,0.6-89.8-18.7-125.5-54.1
			c-40.9-40.5-65.3-97.6-65.3-152.8V606.2c0-106.7,86.5-193.1,193.1-193.1h0c106.7,0,193.1,86.5,193.1,193.1L1664.8,1209.8z"/>
	</g>
</g>
</svg>
