<?xml version="1.0" encoding="UTF-8"?>
<svg version="1.1" width="3142px" height="620px" viewBox="0 0 3142.0 620.0" xmlns="http://www.w3.org/2000/svg"><defs><clipPath id="i0"><path d="M309.999029,0 C481.293158,0 619.998197,139.144666 619.998197,310.622369 L619.998197,1346.56647 C620.158595,1686.9481 344.99633,1962.66066 5.45829465,1962.66066 L0,1962.66066 L0,310.622369 C0,140.70019 136.102015,2.78294157 304.874808,0.0415888124 L309.999029,0 Z"></path></clipPath><clipPath id="i1"><path d="M309.999029,0 C481.293158,0 619.998197,139.146016 619.998197,310.62372 L619.998197,1346.56782 C620.158595,1686.94945 344.99633,1962.66066 5.45829465,1962.66066 L0,1962.66066 L0,310.62372 C0,140.701541 136.102015,2.78296845 304.874808,0.0415892149 L309.999029,0 Z"></path></clipPath><clipPath id="i2"><path d="M309.999029,0 C481.293158,0 620,176.045635 620,392.994723 L620,1350.95706 C620,1350.9835 616.032,1350.99714 608.73088,1350.99959 L602.64,1350.99936 C502.2,1350.96519 0,1349.56662 0,1349.10662 L0,392.994723 C0,175.842118 138.865437,0 309.999029,0 Z"></path></clipPath></defs><g transform=""><g transform="rotate(-90.0) scale(-1.0 1.0)"><g clip-path="url(#i0)"><polygon points="0,-9.09494702e-13 619.998267,-9.09494702e-13 619.998267,1962.66066 0,1962.66066 0,-9.09494702e-13" stroke="none" fill="#202020"></polygon></g></g><g transform="translate(885.1214753346308 8.58335624798201e-12) rotate(-90.0) scale(-1.0 1.0)"><g clip-path="url(#i1)"><polygon points="0,-9.09494702e-13 619.998267,-9.09494702e-13 619.998267,1962.66066 0,1962.66066 0,-9.09494702e-13" stroke="none" fill="#202020"></polygon></g></g><g transform="translate(1790.616590766478 -5.684341886080802e-14) rotate(-90.0) scale(-1.0 1.0)"><g clip-path="url(#i2)"><polygon points="0,0 620,0 620,1351 0,1351 0,0" stroke="none" fill="#202020"></polygon></g></g></g></svg>